<svg width="50" height="50" viewBox="0 0 50 50" fill="none" xmlns="http://www.w3.org/2000/svg">
<path d="M3.88153 0.142242C2.91975 0.356827 2.22229 0.731766 1.51414 1.39643C0.838072 2.05026 0.488962 2.62895 0.213951 3.52912C0.0130402 4.1721 0.00234567 4.78332 0.00234567 22.9479C-0.00834919 39.7839 0.0130409 41.788 0.161241 42.4527C0.615773 44.4033 1.96867 46.0751 3.79673 46.9218C5.17026 47.5756 4.71649 47.5539 20.5785 47.5539H35.0571L35.2366 47.9506C35.8286 49.3225 37.2342 50.115 38.8301 49.9864C40.0561 49.8795 40.9644 49.29 41.5252 48.2078C41.7895 47.7151 41.9476 47.5431 42.2226 47.447C42.4128 47.3827 42.6878 47.2115 42.8254 47.0612C43.079 46.7932 43.079 46.7715 43.1111 44.0818L43.1431 41.3705L44.4326 40.8236C46.4089 39.9768 47.402 39.3664 48.3324 38.4337C48.9352 37.8333 49.2522 37.4158 49.4951 36.8797L49.8442 36.1399V31.1564V26.1729L49.6013 25.6693C48.9146 24.2866 47.4455 23.5584 44.4861 23.1509L43.1126 22.9688L43.1546 21.6186C43.1867 20.4287 43.2287 20.2149 43.4823 19.6896C43.8521 18.9289 44.0851 17.8141 44.0851 16.7962C44.0851 15.8635 43.8841 13.517 43.493 9.83033C43.2707 7.78364 43.1974 6.46514 43.1653 3.86068L43.1126 0.528027L42.8483 0.270836L42.584 0.0244904L23.6036 0.00279999C7.13658 -0.00727081 4.51558 0.00357437 3.88153 0.142242ZM5.29783 18.7042V34.7578L4.21994 34.9399C3.61721 35.0367 3.02594 35.1436 2.88843 35.1862L2.6562 35.2505L2.67759 19.8399L2.70967 4.41845L3.00531 3.91491C3.16421 3.63602 3.43845 3.30369 3.62867 3.17509C3.9457 2.93959 4.71725 2.67155 5.11908 2.66071C5.28714 2.65064 5.29783 3.48651 5.29783 18.7042ZM29.0129 5.833C28.8013 8.22288 27.2376 10.4733 25.3561 11.1054C24.6899 11.3309 22.7244 11.6733 22.6296 11.5772C22.6082 11.5555 22.6716 11.1163 22.7778 10.6019C23.3378 7.82624 25.5256 5.61842 28.1253 5.23263C29.1604 5.07227 29.0863 5.01882 29.0129 5.833ZM19.1316 6.75487C19.988 7.17319 21.1186 8.26626 21.5097 9.04791C22.0697 10.1836 22.4188 11.4378 22.4188 12.338C22.4188 12.7237 22.3768 12.8206 22.1866 12.8632C22.0597 12.8949 21.9222 12.9058 21.8802 12.874C21.8275 12.8415 21.5739 12.3914 21.3096 11.877C20.7916 10.8483 19.7458 9.5406 19.0484 9.02622C18.4777 8.60789 17.6848 7.55821 17.6007 7.10812C17.5687 6.89354 17.5901 6.64719 17.6642 6.50775C17.8208 6.20795 18.1485 6.26218 19.1316 6.75487ZM35.9241 6.72311C36.1563 6.94854 36.1563 6.95861 36.1563 11.3743C36.1563 15.6931 36.167 15.8108 36.3786 16.0897C36.5375 16.2934 36.6957 16.3686 36.9386 16.3686C37.6361 16.3686 37.6254 16.4755 37.6574 11.4494L37.6888 6.916L37.9424 6.71226C38.238 6.46592 38.3755 6.45507 38.6505 6.65881C38.8408 6.8091 38.8514 7.01284 38.9042 11.2991C38.9462 14.6535 38.9889 15.8434 39.0944 16.0146C39.3587 16.4863 40.1509 16.4755 40.3625 15.9929C40.458 15.7891 40.4893 14.4606 40.4893 11.3634C40.4893 7.46215 40.5107 6.99115 40.6688 6.8091C40.8697 6.57359 41.3663 6.5519 41.5458 6.77656C41.6306 6.87339 41.7253 7.80533 41.8208 9.37017C41.8949 10.7204 42.0431 12.864 42.1378 14.1608C42.2333 15.4684 42.2753 16.797 42.2333 17.1719C42.1279 18.2433 41.7154 18.994 40.7536 19.8616C39.4328 21.0616 39.2739 21.5659 39.4328 24.0627C39.4962 24.9845 39.665 27.0095 39.8132 28.5635C39.9721 30.1067 40.0668 31.4035 40.0454 31.436C39.9713 31.5003 37.1181 32.1216 36.8752 32.1216C36.643 32.1216 36.643 32.4323 36.8859 29.0671C37.3511 22.7442 37.3618 22.3692 37.1815 21.7154C36.9699 20.9973 36.5895 20.4937 35.7866 19.8508C34.2328 18.6291 34.1488 18.1147 34.5712 11.9096C34.9303 6.58289 34.8882 6.95861 35.1839 6.72233C35.5116 6.45507 35.6384 6.45507 35.9241 6.72311ZM18.4976 12.5634C18.878 12.6602 19.6389 12.96 20.1881 13.2281C21.5303 13.9036 22.0483 13.9136 23.4646 13.335C24.722 12.8206 25.9901 12.5099 26.8572 12.5099C28.2521 12.5208 29.1504 12.8957 30.1336 13.8927C32.585 16.3895 32.8707 21.0624 30.8097 25.3169C30.2283 26.5168 29.1718 27.9639 28.3048 28.7247C26.6455 30.1818 25.1765 30.5676 23.1789 30.0858C22.059 29.8177 21.509 29.8177 20.7481 30.0966C18.8245 30.7931 17.0385 30.2678 15.2211 28.4466C14.1539 27.3853 13.5512 26.5068 12.8538 25.0171C12.1876 23.5917 11.8072 22.2631 11.6277 20.73C11.3106 17.9117 11.9768 15.597 13.5825 14.0322C15.0095 12.6277 16.6902 12.135 18.4976 12.5634ZM45.8795 25.7561C47.528 26.2387 48.0246 26.9561 47.4119 28.0065C46.9788 28.7564 45.7634 29.528 43.9666 30.2035C43.5014 30.3747 43.1004 30.5142 43.0683 30.5142C43.0469 30.5142 43.0263 29.3568 43.0263 27.9531C43.0263 26.1311 43.0576 25.3812 43.1424 25.3486C43.3326 25.2843 45.2348 25.5741 45.8795 25.7561ZM48.0139 35.9903C47.4746 37.2445 45.5411 38.5197 42.6344 39.5267C40.5733 40.234 37.2762 40.9839 33.1763 41.6594C29.0863 42.3349 27.9771 42.6347 26.3178 43.4923C25.832 43.7495 25.3981 43.9749 25.3561 43.9958C25.3033 44.0175 25.2713 42.5921 25.2713 40.8344C25.2713 37.9301 25.2926 37.5978 25.4722 37.1903C25.6204 36.8688 25.7999 36.6759 26.1062 36.5257C26.3385 36.3971 26.5821 36.3002 26.6455 36.3002C26.709 36.3002 26.751 36.8363 26.751 37.8217C26.751 39.4508 26.8358 39.7289 27.3323 39.7289C27.7655 39.7289 27.8082 39.5577 27.8082 37.7891C27.8082 36.8564 27.8502 36.0748 27.893 36.0423C27.935 36.0206 28.3789 35.9245 28.8655 35.8385C29.362 35.7417 29.8487 35.6456 29.9541 35.603C30.1229 35.5279 30.1336 35.6355 30.1336 36.975C30.1336 38.4964 30.2077 38.7645 30.6408 38.7645C31.0954 38.7536 31.1374 38.625 31.1901 36.975L31.2428 35.3993L32.0358 35.2598C32.4689 35.1847 32.9341 35.0987 33.0716 35.0669L33.3039 35.0135V37.1353C33.3039 39.1177 33.3146 39.2788 33.5155 39.4609C33.7905 39.7072 34.2343 39.6003 34.3611 39.2355C34.4245 39.0852 34.4665 38.0355 34.4665 36.9099V34.8524L35.4497 34.6269C35.9783 34.4983 36.4535 34.4232 36.5062 34.4449C36.5482 34.4666 36.5803 35.1095 36.5803 35.8594C36.5803 37.3274 36.633 37.4777 37.1089 37.4777C37.5948 37.4777 37.6376 37.3274 37.6376 35.6991V34.19L38.5146 34.008C38.9905 33.9111 39.4442 33.8368 39.5183 33.8368C39.6138 33.8368 39.6452 34.3403 39.6452 36.012C39.6452 37.566 39.6772 38.2199 39.772 38.3159C39.9729 38.5197 40.4694 38.4771 40.5962 38.2408C40.6596 38.1122 40.7017 37.126 40.7017 35.7758C40.7017 33.6322 40.7124 33.5145 40.9026 33.5145C41.008 33.5145 41.4839 33.3967 41.9591 33.2681L42.8154 33.0109V34.4364C42.8154 35.9369 42.8895 36.1941 43.3441 36.1941C43.8093 36.1941 43.8727 35.9586 43.8727 34.2326V32.6035L44.5388 32.3571C44.8979 32.2177 45.2783 32.0782 45.3845 32.0465C45.5434 31.993 45.564 32.0891 45.564 33.1078C45.564 33.9328 45.606 34.276 45.7328 34.458C45.923 34.7369 46.166 34.7578 46.4303 34.5115C46.5991 34.3612 46.6205 34.1575 46.6205 32.8824V31.4252L47.2439 31.0177C47.593 30.7923 47.9413 30.5351 48.0154 30.439C48.1315 30.2996 48.1529 30.7071 48.1842 32.8932C48.2041 35.2722 48.1934 35.5728 48.0139 35.9903ZM23.6861 38.3376V39.409H14.3121C5.74167 39.409 4.92733 39.4198 4.74781 39.591C4.51558 39.8056 4.50488 40.138 4.72642 40.4595L4.88532 40.695H14.2907H23.6854V41.606V42.517H14.6176H5.54076L5.29783 42.785C5.08623 43.0105 5.0656 43.1065 5.14963 43.342C5.20234 43.5032 5.37193 43.696 5.50867 43.7704C5.72028 43.8773 7.74925 43.9099 14.7345 43.9099H23.6854V44.5528V45.1958H15.4007C8.58421 45.1958 6.96699 45.1633 6.31232 45.0347C3.62791 44.5203 1.86325 42.0444 2.47592 39.6437C2.66613 38.9473 3.09927 38.2935 3.66992 37.8968C4.57899 37.2647 4.39946 37.2755 14.4702 37.2755L23.6854 37.2647V38.3376H23.6861ZM40.3839 44.4785C40.3839 46.6112 40.3732 46.6646 40.1089 47.2224C39.3694 48.7121 37.5726 48.7338 36.7163 47.2549C36.4306 46.7723 36.4207 46.6654 36.3573 44.9828C36.3152 44.0075 36.3045 43.2041 36.3152 43.1824C36.3366 43.1607 36.8645 43.0538 37.4886 42.9361C38.1227 42.8183 38.9996 42.6363 39.4328 42.5286C39.8659 42.4217 40.2571 42.3249 40.3098 42.314C40.3518 42.3024 40.3839 43.2777 40.3839 44.4785ZM34.339 44.4033L34.3069 45.1431L30.7669 45.1648L27.2269 45.1865L27.7028 44.9719C28.3262 44.6822 30.1015 44.1895 31.032 44.0292C33.1243 43.6751 34.2129 43.5256 34.287 43.5899C34.3283 43.6318 34.3604 43.9958 34.339 44.4033Z" fill="#386641"/>
</svg>
