<svg width="40" height="40" viewBox="0 0 40 40" fill="none" xmlns="http://www.w3.org/2000/svg">
<circle cx="20" cy="20" r="20" fill="#386641"/>
<path d="M27.2519 28.1578V26.345C27.2519 25.3834 26.87 24.4611 26.19 23.7812C25.51 23.1012 24.5878 22.7192 23.6262 22.7192H16.3748C15.4132 22.7192 14.4909 23.1012 13.811 23.7812C13.131 24.4611 12.749 25.3834 12.749 26.345V28.1578M23.6262 15.4678C23.6262 17.4702 22.0029 19.0935 20.0005 19.0935C17.998 19.0935 16.3748 17.4702 16.3748 15.4678C16.3748 13.4653 17.998 11.842 20.0005 11.842C22.0029 11.842 23.6262 13.4653 23.6262 15.4678Z" stroke="#FEF9F0" stroke-width="2" stroke-linecap="round" stroke-linejoin="round"/>
</svg>
